<?xml version="1.0" encoding="UTF-8" standalone="no"?> <svg width="64" height="64" viewBox="0 0 64 64" fill="none" xmlns="http://www.w3.org/2000/svg">
<path d="M3.84009 57.3601L6.68009 60.0901H15.9501V36.8901H47.2901V59.7101H58.2101L60.2101 57.2901V20.0001L43.7101 3.64014H37.7901V14.3601H16.2901V4.29014H4.79009L3.84009 57.3601Z" fill="#78B9EB"/>
<path d="M61.06 19.13L44.87 2.94C44.589 2.65862 44.2077 2.50035 43.81 2.5H7C5.80734 2.50264 4.66428 2.9776 3.82094 3.82094C2.9776 4.66428 2.50264 5.80734 2.5 7V57C2.50264 58.1927 2.9776 59.3357 3.82094 60.1791C4.66428 61.0224 5.80734 61.4974 7 61.5H57C58.1927 61.4974 59.3357 61.0224 60.1791 60.1791C61.0224 59.3357 61.4974 58.1927 61.5 57V20.19C61.4996 19.7923 61.3414 19.411 61.06 19.13V19.13ZM36.55 5.5V11.86C36.55 12.2578 36.392 12.6394 36.1107 12.9207C35.8294 13.202 35.4478 13.36 35.05 13.36H18.93C18.5322 13.36 18.1506 13.202 17.8693 12.9207C17.588 12.6394 17.43 12.2578 17.43 11.86V5.5H36.55ZM46.55 46.5H17.43V43.5H46.57L46.55 46.5ZM17.41 49.5H46.57V52.5H17.43L17.41 49.5ZM46.55 40.5H17.43V39.1C17.43 38.7022 17.588 38.3206 17.8693 38.0393C18.1506 37.758 18.5322 37.6 18.93 37.6H45.07C45.4678 37.6 45.8494 37.758 46.1307 38.0393C46.412 38.3206 46.57 38.7022 46.57 39.1L46.55 40.5ZM17.41 58.5V55.5H46.57V58.5H17.41ZM58.5 57C58.5 57.3978 58.342 57.7794 58.0607 58.0607C57.7794 58.342 57.3978 58.5 57 58.5H49.57V39.1C49.5674 37.9073 49.0924 36.7643 48.2491 35.9209C47.4057 35.0776 46.2627 34.6026 45.07 34.6H18.93C17.7373 34.6026 16.5943 35.0776 15.7509 35.9209C14.9076 36.7643 14.4326 37.9073 14.43 39.1V58.5H7C6.60218 58.5 6.22064 58.342 5.93934 58.0607C5.65804 57.7794 5.5 57.3978 5.5 57V7C5.5 6.60218 5.65804 6.22064 5.93934 5.93934C6.22064 5.65804 6.60218 5.5 7 5.5H14.43V11.86C14.43 13.0535 14.9041 14.1981 15.748 15.042C16.5919 15.8859 17.7365 16.36 18.93 16.36H35.05C35.6413 16.3613 36.2271 16.2458 36.7736 16.0201C37.3202 15.7945 37.8168 15.463 38.2349 15.0449C38.653 14.6268 38.9845 14.1302 39.2101 13.5836C39.4358 13.0371 39.5513 12.4513 39.55 11.86V5.5H43.19L58.5 20.81V57Z" fill="#006DF0"/>
</svg>
